<svg width="25" height="25" viewBox="0 0 25 25" fill="none" xmlns="http://www.w3.org/2000/svg">
<path d="M19.3864 25H21.2727C22.2273 25 23.0114 24.2724 23.125 23.3402L25 4.60437H19.3182V0H17.0795V4.60437H11.4318L11.7727 7.26467C13.7159 7.799 15.5341 8.76535 16.625 9.83401C18.2614 11.4484 19.3864 13.1196 19.3864 15.8481V25ZM0 23.8631V22.7376H17.0795V23.8631C17.0795 24.4884 16.5682 25 15.9318 25H1.14773C0.511364 25 0 24.4884 0 23.8631ZM17.0795 15.905C17.0795 6.80991 0 6.80991 0 15.905H17.0795ZM0.0227273 18.1901H17.0682V20.4638H0.0227273V18.1901Z" fill="#444444"/>
</svg>
